<?xml version="1.0" standalone="no"?>
<!DOCTYPE svg PUBLIC "-//W3C//DTD SVG 20010904//EN"
 "http://www.w3.org/TR/2001/REC-SVG-20010904/DTD/svg10.dtd">
<svg version="1.0" xmlns="http://www.w3.org/2000/svg"
 width="2974.000000pt" height="1928.000000pt" viewBox="0 0 2974.000000 1928.000000"
 preserveAspectRatio="xMidYMid meet">

<g transform="translate(0.000000,1928.000000) scale(0.100000,-0.100000)"
fill="#000000" stroke="none">
<path d="M10670 9610 l0 -6820 4295 0 4295 0 0 6820 0 6820 -4295 0 -4295 0 0
-6820z m1050 6216 c0 -8 8 -17 18 -19 9 -3 2 -5 -15 -6 -31 -1 -44 15 -26 32
11 12 23 8 23 -7z m1078 -4 c2 -7 -3 -12 -12 -12 -9 0 -16 7 -16 16 0 17 22
14 28 -4z m-1315 -19 c-7 -2 -21 -2 -30 0 -10 3 -4 5 12 5 17 0 24 -2 18 -5z
m164 1 c-3 -3 -12 -4 -19 -1 -8 3 -5 6 6 6 11 1 17 -2 13 -5z m460 0 c-3 -3
-12 -4 -19 -1 -8 3 -5 6 6 6 11 1 17 -2 13 -5z m50 0 c-3 -3 -12 -4 -19 -1 -8
3 -5 6 6 6 11 1 17 -2 13 -5z m360 0 c-3 -3 -12 -4 -19 -1 -8 3 -5 6 6 6 11 1
17 -2 13 -5z m380 0 c-3 -3 -12 -4 -19 -1 -8 3 -5 6 6 6 11 1 17 -2 13 -5z
m50 0 c-3 -3 -12 -4 -19 -1 -8 3 -5 6 6 6 11 1 17 -2 13 -5z m431 -1 c-10 -2
-26 -2 -35 0 -10 3 -2 5 17 5 19 0 27 -2 18 -5z m59 1 c-3 -3 -12 -4 -19 -1
-8 3 -5 6 6 6 11 1 17 -2 13 -5z m230 0 c-3 -3 -12 -4 -19 -1 -8 3 -5 6 6 6
11 1 17 -2 13 -5z m50 0 c-3 -3 -12 -4 -19 -1 -8 3 -5 6 6 6 11 1 17 -2 13 -5z
m130 0 c-3 -3 -12 -4 -19 -1 -8 3 -5 6 6 6 11 1 17 -2 13 -5z m146 -1 c-7 -2
-21 -2 -30 0 -10 3 -4 5 12 5 17 0 24 -2 18 -5z m100 0 c-7 -2 -21 -2 -30 0
-10 3 -4 5 12 5 17 0 24 -2 18 -5z m494 1 c-3 -3 -12 -4 -19 -1 -8 3 -5 6 6 6
11 1 17 -2 13 -5z m1530 0 c-3 -3 -12 -4 -19 -1 -8 3 -5 6 6 6 11 1 17 -2 13
-5z m1670 0 c-3 -3 -12 -4 -19 -1 -8 3 -5 6 6 6 11 1 17 -2 13 -5z m-6577
-6060 c0 -5226 -2 -6047 -14 -6060 -18 -18 -24 -18 -42 1 -13 13 -16 526 -21
4262 -3 2337 -2 5057 2 6046 l7 1797 34 0 34 0 0 -6046z m7540 0 l0 -6047 -22
-18 c-11 -11 -18 -22 -14 -26 4 -4 11 -1 16 7 5 8 13 11 17 6 4 -5 2 -11 -4
-13 -7 -3 -13 -11 -13 -19 0 -18 -17 -18 -36 0 -12 13 -14 837 -14 6085 l0
6071 35 0 35 0 0 -6046z m-4320 5906 c0 -5 -4 -10 -10 -10 -5 0 -10 5 -10 10
0 6 5 10 10 10 6 0 10 -4 10 -10z m92 -10 c19 -17 19 -20 5 -20 -9 0 -17 5
-17 10 0 6 -7 10 -15 10 -8 0 -15 5 -15 10 0 16 19 12 42 -10z m-3182 -25 c0
-20 5 -25 25 -25 l25 0 0 -5860 0 -5860 -25 0 c-20 0 -25 -5 -25 -25 0 -14 -4
-25 -10 -25 -7 0 -10 1977 -10 5910 0 3933 3 5910 10 5910 6 0 10 -11 10 -25z
m125 15 c3 -5 -1 -10 -9 -10 -9 0 -16 5 -16 10 0 6 4 10 9 10 6 0 13 -4 16
-10z m285 0 c0 -5 -7 -10 -15 -10 -8 0 -15 5 -15 10 0 6 7 10 15 10 8 0 15 -4
15 -10z m100 0 c0 -5 -7 -10 -16 -10 -8 0 -12 5 -9 10 3 6 10 10 16 10 5 0 9
-4 9 -10z m330 0 c0 -5 -7 -10 -16 -10 -8 0 -12 5 -9 10 3 6 10 10 16 10 5 0
9 -4 9 -10z m50 0 c0 -5 -4 -10 -10 -10 -5 0 -10 5 -10 10 0 6 5 10 10 10 6 0
10 -4 10 -10z m55 0 c3 -5 -1 -10 -9 -10 -9 0 -16 5 -16 10 0 6 4 10 9 10 6 0
13 -4 16 -10z m125 0 c0 -5 -4 -10 -10 -10 -5 0 -10 5 -10 10 0 6 5 10 10 10
6 0 10 -4 10 -10z m50 0 c0 -5 -4 -10 -10 -10 -5 0 -10 5 -10 10 0 6 5 10 10
10 6 0 10 -4 10 -10z m55 0 c3 -5 -1 -10 -9 -10 -9 0 -16 5 -16 10 0 6 4 10 9
10 6 0 13 -4 16 -10z m335 0 c0 -5 -7 -10 -15 -10 -8 0 -15 5 -15 10 0 6 7 10
15 10 8 0 15 -4 15 -10z m535 0 c4 -6 -10 -10 -34 -10 -23 0 -41 5 -41 10 0 6
15 10 34 10 19 0 38 -4 41 -10z m105 0 c0 -5 -14 -10 -31 -10 -17 0 -28 4 -24
10 3 6 17 10 31 10 13 0 24 -4 24 -10z m70 0 c0 -5 -4 -10 -10 -10 -5 0 -10 5
-10 10 0 6 5 10 10 10 6 0 10 -4 10 -10z m285 0 c3 -5 -1 -10 -9 -10 -9 0 -16
5 -16 10 0 6 4 10 9 10 6 0 13 -4 16 -10z m535 0 c0 -5 -7 -10 -16 -10 -8 0
-12 5 -9 10 3 6 10 10 16 10 5 0 9 -4 9 -10z m75 0 c3 -5 -1 -10 -10 -10 -9 0
-13 5 -10 10 3 6 8 10 10 10 2 0 7 -4 10 -10z m155 0 c0 -5 -4 -10 -10 -10 -5
0 -10 5 -10 10 0 6 5 10 10 10 6 0 10 -4 10 -10z m490 0 c0 -5 -7 -10 -15 -10
-8 0 -15 5 -15 10 0 6 7 10 15 10 8 0 15 -4 15 -10z m75 0 c3 -5 -1 -10 -9
-10 -9 0 -16 5 -16 10 0 6 4 10 9 10 6 0 13 -4 16 -10z m335 0 c0 -5 -7 -10
-15 -10 -8 0 -15 5 -15 10 0 6 7 10 15 10 8 0 15 -4 15 -10z m280 0 c0 -5 -7
-10 -15 -10 -8 0 -15 5 -15 10 0 6 7 10 15 10 8 0 15 -4 15 -10z m510 0 c0 -5
-7 -10 -16 -10 -8 0 -12 5 -9 10 3 6 10 10 16 10 5 0 9 -4 9 -10z m50 0 c0 -5
-7 -10 -16 -10 -8 0 -12 5 -9 10 3 6 10 10 16 10 5 0 9 -4 9 -10z m280 0 c0
-5 -11 -10 -25 -10 -14 0 -25 5 -25 10 0 6 11 10 25 10 14 0 25 -4 25 -10z
m260 -1 c0 -5 -36 -9 -81 -9 -47 0 -78 4 -74 9 7 12 155 11 155 0z m100 -1 c0
-4 -18 -8 -41 -8 -23 0 -38 4 -34 10 7 11 75 10 75 -2z m360 2 c0 -5 -7 -10
-15 -10 -8 0 -15 5 -15 10 0 6 7 10 15 10 8 0 15 -4 15 -10z m75 0 c3 -5 -1
-10 -9 -10 -9 0 -16 5 -16 10 0 6 4 10 9 10 6 0 13 -4 16 -10z m55 0 c0 -5 -7
-10 -15 -10 -8 0 -15 5 -15 10 0 6 7 10 15 10 8 0 15 -4 15 -10z m250 0 c0 -5
-4 -10 -10 -10 -5 0 -10 5 -10 10 0 6 5 10 10 10 6 0 10 -4 10 -10z m515 0 c3
-5 -1 -10 -9 -10 -9 0 -16 5 -16 10 0 6 4 10 9 10 6 0 13 -4 16 -10z m155 0
c0 -5 -7 -10 -15 -10 -8 0 -15 5 -15 10 0 6 7 10 15 10 8 0 15 -4 15 -10z
m170 -5895 c0 -3890 -3 -5845 -10 -5845 -15 0 -12 -48 3 -53 6 -2 9 -7 5 -11
-9 -11 -48 26 -48 46 0 10 -4 18 -10 18 -16 0 -14 11707 2 11724 10 10 17 8
35 -10 l23 -23 0 -5846z m-3795 5360 c704 -82 1177 -308 1435 -685 93 -136
174 -342 206 -525 26 -147 24 -431 -4 -587 -96 -532 -436 -1021 -947 -1363
-117 -78 -331 -187 -463 -234 l-92 -34 31 -56 c64 -114 377 -643 509 -861 526
-867 942 -1474 1324 -1935 153 -183 470 -496 612 -602 267 -199 517 -304 764
-320 52 -3 98 -11 102 -17 12 -18 9 -101 -4 -114 -17 -17 -1379 -17 -1429 0
-193 65 -554 485 -1024 1188 -434 648 -943 1513 -1415 2400 -51 96 -94 176
-96 178 -1 2 -35 -6 -76 -17 -122 -36 -314 -46 -570 -32 -123 6 -235 14 -251
18 l-28 5 3 -1558 c3 -1461 4 -1564 21 -1643 58 -267 187 -366 522 -400 59 -6
155 -11 211 -11 92 0 104 -2 114 -19 14 -27 13 -84 -3 -105 -12 -17 -33 -17
-392 -5 -486 15 -1115 15 -1605 0 -432 -14 -410 -17 -410 59 0 65 6 67 190 73
455 16 606 110 678 422 15 63 16 349 20 3030 2 2056 0 2992 -8 3066 -37 369
-166 491 -559 529 -53 5 -140 10 -193 10 -109 0 -118 6 -118 72 0 71 -5 70
280 59 945 -39 971 -38 1510 4 173 13 335 26 360 29 107 10 661 -3 795 -19z
m-945 -7907 c15 -19 32 -24 101 -29 109 -9 593 -10 776 -1 131 7 144 9 167 31
14 14 27 23 29 20 6 -9 -17 -369 -24 -369 -4 0 -11 21 -14 48 -17 122 -46 175
-116 210 -88 44 -270 42 -315 -3 l-24 -24 0 -536 0 -537 28 -28 c24 -24 40
-30 100 -36 146 -14 64 -24 -198 -24 -259 0 -343 10 -205 24 79 8 109 21 123
51 7 15 11 213 13 555 l2 533 -26 23 c-33 28 -97 38 -192 31 -145 -11 -212
-75 -255 -244 -14 -54 -35 -58 -26 -5 3 20 11 103 18 185 6 81 13 147 16 147
2 0 12 -10 22 -22z m-395 -40 c65 -22 70 -25 76 -58 12 -65 20 -230 10 -230
-5 0 -18 30 -30 68 -27 88 -81 158 -150 194 -44 23 -66 28 -125 28 -90 0 -148
-27 -191 -88 -25 -36 -30 -55 -33 -116 -8 -152 47 -215 331 -381 120 -70 184
-127 222 -197 27 -48 30 -62 30 -143 0 -78 -4 -97 -27 -140 -28 -53 -96 -123
-144 -148 -60 -31 -144 -48 -236 -48 -107 0 -169 12 -250 48 -64 29 -59 14
-79 212 -13 139 -2 163 31 61 58 -182 182 -290 330 -290 118 0 185 34 225 114
30 60 33 148 8 222 -25 75 -121 164 -273 255 -217 129 -290 217 -290 350 0
157 88 261 258 304 81 21 218 13 307 -17z m1975 0 c0 -4 -9 -8 -20 -8 -37 0
-90 -28 -90 -47 0 -10 31 -61 68 -114 37 -52 114 -164 172 -247 58 -84 108
-152 111 -152 13 0 273 406 287 447 13 38 13 46 -2 68 -10 16 -33 30 -61 37
-25 7 -45 15 -45 18 0 3 90 5 200 5 192 0 237 -5 168 -20 -58 -13 -122 -52
-175 -107 -28 -29 -117 -153 -197 -276 l-146 -223 0 -270 c0 -270 0 -270 23
-293 17 -17 40 -26 85 -31 129 -15 55 -25 -183 -25 -239 0 -313 10 -179 25 51
5 73 13 90 30 24 24 24 25 24 278 l0 253 -185 270 c-102 148 -206 288 -230
311 -30 28 -61 45 -95 54 -27 7 -50 15 -50 18 0 3 97 6 215 6 118 1 215 -3
215 -7z m1360 0 c0 -5 -12 -8 -26 -8 -50 0 -115 -23 -130 -45 -19 -29 -20 -58
-16 -622 l2 -462 24 -28 24 -28 181 -3 c225 -4 270 6 341 77 39 39 53 63 70
120 28 91 45 93 36 4 -3 -38 -9 -107 -12 -155 l-7 -88 -483 0 c-455 0 -577 7
-422 25 44 5 68 14 84 30 l22 22 4 524 c2 288 0 538 -5 556 -10 43 -39 61
-109 69 -32 4 -58 9 -58 13 0 3 108 6 240 6 132 0 240 -3 240 -7z m-1484
-1848 c336 -696 360 -743 404 -793 31 -35 53 -50 86 -58 25 -7 43 -14 40 -16
-5 -6 -457 -5 -463 1 -3 2 21 7 51 11 76 10 109 36 100 79 -3 17 -63 149 -133
293 l-126 263 -195 0 -195 0 -99 -233 c-112 -260 -121 -304 -77 -351 26 -28
61 -41 134 -51 102 -14 37 -20 -189 -18 -130 1 -238 4 -240 6 -2 2 19 9 47 15
67 16 100 41 140 105 26 42 156 338 484 1102 16 37 26 48 37 37 4 -4 91 -181
194 -392z m-2213 333 c13 -21 128 -255 257 -520 128 -266 235 -482 236 -480 2
1 102 227 224 502 122 275 229 508 237 518 14 15 35 17 155 17 139 0 185 -12
84 -23 -63 -6 -111 -28 -127 -59 -14 -26 -14 -67 1 -443 18 -442 28 -629 35
-648 10 -25 51 -43 113 -52 28 -4 52 -10 52 -13 0 -4 -103 -7 -230 -7 -223 0
-284 7 -179 21 31 4 62 16 78 30 26 22 26 23 23 151 -1 70 -6 209 -12 308 -5
99 -12 262 -16 363 -4 101 -10 180 -14 175 -4 -4 -103 -226 -220 -493 -256
-582 -241 -550 -255 -550 -11 0 -200 383 -428 867 -56 119 -84 167 -88 155 -4
-9 -10 -213 -14 -452 -5 -321 -4 -443 5 -465 19 -49 49 -73 106 -85 30 -6 54
-14 54 -18 0 -8 -379 -6 -387 2 -3 2 12 8 33 12 64 11 94 32 115 80 18 40 20
74 24 376 3 183 7 408 10 499 l5 167 -35 30 c-31 28 -88 52 -122 52 -7 0 -13
5 -13 10 0 6 52 10 135 10 l135 0 23 -37z m3217 27 c0 -5 -12 -10 -27 -10 -37
0 -78 -23 -77 -42 1 -18 305 -477 316 -478 12 0 259 351 280 397 25 56 16 91
-28 109 -18 8 -43 14 -54 14 -11 0 -20 5 -20 10 0 6 73 10 200 10 188 0 247
-9 163 -25 -104 -19 -180 -92 -380 -362 l-141 -191 184 -274 c101 -150 202
-290 224 -310 41 -37 73 -51 143 -63 85 -14 24 -20 -189 -18 -124 0 -228 3
-230 6 -3 2 12 8 33 11 63 12 73 17 73 38 0 15 -286 455 -320 491 -7 8 -244
-308 -292 -388 -43 -73 -19 -126 61 -139 88 -14 33 -21 -159 -21 -187 0 -239
6 -172 21 81 17 158 67 219 142 44 53 283 375 303 408 11 18 -3 44 -158 276
-94 141 -186 273 -204 294 -36 41 -118 84 -160 84 -16 0 -28 5 -28 10 0 6 80
10 220 10 140 0 220 -4 220 -10z m2415 -2071 c11 -16 1 -19 -13 -3 -7 8 -8 14
-3 14 5 0 13 -5 16 -11z"/>
<path d="M11160 3710 c0 -5 5 -10 10 -10 6 0 10 5 10 10 0 6 -4 10 -10 10 -5
0 -10 -4 -10 -10z"/>
<path d="M13790 14954 c-234 -35 -332 -122 -389 -347 -39 -152 -42 -271 -39
-1577 l3 -1255 60 -6 c33 -4 168 -12 300 -19 640 -34 1077 79 1404 360 173
149 321 392 390 641 115 418 103 967 -29 1344 -181 513 -573 794 -1194 854
-101 10 -448 13 -506 5z"/>
<path d="M14957 5313 c-42 -98 -75 -179 -73 -180 2 -2 77 -2 168 -1 l165 3
-85 178 c-47 97 -88 177 -92 177 -3 0 -41 -80 -83 -177z"/>
</g>
</svg>
